<svg id="visual" viewBox="0 0 1980 400" width="1980" height="400" xmlns="http://www.w3.org/2000/svg" xmlns:xlink="http://www.w3.org/1999/xlink" version="1.1"><rect x="0" y="0" width="1980" height="400" fill="#fff"></rect><path d="M0 309L47.2 315C94.3 321 188.7 333 283 339.2C377.3 345.3 471.7 345.7 566 338.2C660.3 330.7 754.7 315.3 848.8 310.7C943 306 1037 312 1131.2 320.2C1225.3 328.3 1319.7 338.7 1414 342.7C1508.3 346.7 1602.7 344.3 1697 340.7C1791.3 337 1885.7 332 1932.8 329.5L1980 327L1980 401L1932.8 401C1885.7 401 1791.3 401 1697 401C1602.7 401 1508.3 401 1414 401C1319.7 401 1225.3 401 1131.2 401C1037 401 943 401 848.8 401C754.7 401 660.3 401 566 401C471.7 401 377.3 401 283 401C188.7 401 94.3 401 47.2 401L0 401Z" fill="#d32560" stroke-linecap="round" stroke-linejoin="miter"></path></svg>