<svg id="visual" viewBox="0 0 1980 1200" width="1980" height="1200" xmlns="http://www.w3.org/2000/svg" xmlns:xlink="http://www.w3.org/1999/xlink" version="1.1"><rect x="0" y="0" width="1980" height="1200" fill="#fac3d5"></rect><defs><linearGradient id="grad1_0" x1="39.4%" y1="100%" x2="100%" y2="0%"><stop offset="17.000000000000004%" stop-color="#f089ab" stop-opacity="1"></stop><stop offset="83%" stop-color="#f089ab" stop-opacity="1"></stop></linearGradient></defs><defs><linearGradient id="grad1_1" x1="39.4%" y1="100%" x2="100%" y2="0%"><stop offset="17.000000000000004%" stop-color="#f089ab" stop-opacity="1"></stop><stop offset="83%" stop-color="#f398b6" stop-opacity="1"></stop></linearGradient></defs><defs><linearGradient id="grad1_2" x1="39.4%" y1="100%" x2="100%" y2="0%"><stop offset="17.000000000000004%" stop-color="#f6a6c0" stop-opacity="1"></stop><stop offset="83%" stop-color="#f398b6" stop-opacity="1"></stop></linearGradient></defs><defs><linearGradient id="grad1_3" x1="39.4%" y1="100%" x2="100%" y2="0%"><stop offset="17.000000000000004%" stop-color="#f6a6c0" stop-opacity="1"></stop><stop offset="83%" stop-color="#f8b5cb" stop-opacity="1"></stop></linearGradient></defs><defs><linearGradient id="grad1_4" x1="39.4%" y1="100%" x2="100%" y2="0%"><stop offset="17.000000000000004%" stop-color="#fac3d5" stop-opacity="1"></stop><stop offset="83%" stop-color="#f8b5cb" stop-opacity="1"></stop></linearGradient></defs><defs><linearGradient id="grad2_0" x1="0%" y1="100%" x2="60.6%" y2="0%"><stop offset="17.000000000000004%" stop-color="#f089ab" stop-opacity="1"></stop><stop offset="83%" stop-color="#f089ab" stop-opacity="1"></stop></linearGradient></defs><defs><linearGradient id="grad2_1" x1="0%" y1="100%" x2="60.6%" y2="0%"><stop offset="17.000000000000004%" stop-color="#f398b6" stop-opacity="1"></stop><stop offset="83%" stop-color="#f089ab" stop-opacity="1"></stop></linearGradient></defs><defs><linearGradient id="grad2_2" x1="0%" y1="100%" x2="60.6%" y2="0%"><stop offset="17.000000000000004%" stop-color="#f398b6" stop-opacity="1"></stop><stop offset="83%" stop-color="#f6a6c0" stop-opacity="1"></stop></linearGradient></defs><defs><linearGradient id="grad2_3" x1="0%" y1="100%" x2="60.6%" y2="0%"><stop offset="17.000000000000004%" stop-color="#f8b5cb" stop-opacity="1"></stop><stop offset="83%" stop-color="#f6a6c0" stop-opacity="1"></stop></linearGradient></defs><defs><linearGradient id="grad2_4" x1="0%" y1="100%" x2="60.6%" y2="0%"><stop offset="17.000000000000004%" stop-color="#f8b5cb" stop-opacity="1"></stop><stop offset="83%" stop-color="#fac3d5" stop-opacity="1"></stop></linearGradient></defs><g transform="translate(1980, 1200)"><path d="M-926.1 0C-913.2 -181.5 -900.2 -363 -802 -463.1C-703.8 -563.1 -520.4 -581.6 -372.5 -645.2C-224.6 -708.8 -112.3 -817.4 0 -926.1L0 0Z" fill="#f9bcd0"></path><path d="M-740.9 0C-730.5 -145.2 -720.2 -290.4 -641.6 -370.4C-563.1 -450.5 -416.3 -465.3 -298 -516.2C-179.7 -567 -89.8 -654 0 -740.9L0 0Z" fill="#f7aec5"></path><path d="M-555.7 0C-547.9 -108.9 -540.1 -217.8 -481.2 -277.8C-422.3 -337.8 -312.2 -349 -223.5 -387.1C-134.8 -425.3 -67.4 -490.5 0 -555.7L0 0Z" fill="#f49fbb"></path><path d="M-370.4 0C-365.3 -72.6 -360.1 -145.2 -320.8 -185.2C-281.5 -225.2 -208.2 -232.6 -149 -258.1C-89.8 -283.5 -44.9 -327 0 -370.4L0 0Z" fill="#f290b0"></path><path d="M-185.2 0C-182.6 -36.3 -180 -72.6 -160.4 -92.6C-140.8 -112.6 -104.1 -116.3 -74.5 -129C-44.9 -141.8 -22.5 -163.5 0 -185.2L0 0Z" fill="#f089ab"></path></g><g transform="translate(0, 0)"><path d="M926.1 0C913.2 181.6 900.4 363.3 802 463.1C703.7 562.8 519.9 580.8 372 644.3C224.1 707.9 112 817 0 926.1L0 0Z" fill="#f9bcd0"></path><path d="M740.9 0C730.6 145.3 720.3 290.6 641.6 370.4C563 450.3 415.9 464.6 297.6 515.5C179.3 566.3 89.6 653.6 0 740.9L0 0Z" fill="#f7aec5"></path><path d="M555.7 0C547.9 109 540.2 218 481.2 277.8C422.2 337.7 311.9 348.5 223.2 386.6C134.5 424.7 67.2 490.2 0 555.7L0 0Z" fill="#f49fbb"></path><path d="M370.4 0C365.3 72.7 360.1 145.3 320.8 185.2C281.5 225.1 208 232.3 148.8 257.7C89.6 283.1 44.8 326.8 0 370.4L0 0Z" fill="#f290b0"></path><path d="M185.2 0C182.6 36.3 180.1 72.7 160.4 92.6C140.7 112.6 104 116.2 74.4 128.9C44.8 141.6 22.4 163.4 0 185.2L0 0Z" fill="#f089ab"></path></g></svg>