<svg id="visual" viewBox="0 0 1920 1080" width="1920" height="1080" xmlns="http://www.w3.org/2000/svg" xmlns:xlink="http://www.w3.org/1999/xlink" version="1.1"><path d="M0 55L53.3 55C106.7 55 213.3 55 320 65.8C426.7 76.7 533.3 98.3 640 111C746.7 123.7 853.3 127.3 960 130.8C1066.7 134.3 1173.3 137.7 1280 125C1386.7 112.3 1493.3 83.7 1600 83.7C1706.7 83.7 1813.3 112.3 1866.7 126.7L1920 141L1920 0L1866.7 0C1813.3 0 1706.7 0 1600 0C1493.3 0 1386.7 0 1280 0C1173.3 0 1066.7 0 960 0C853.3 0 746.7 0 640 0C533.3 0 426.7 0 320 0C213.3 0 106.7 0 53.3 0L0 0Z" fill="#f68cae"></path><path d="M0 217L53.3 206.2C106.7 195.3 213.3 173.7 320 164.7C426.7 155.7 533.3 159.3 640 166.5C746.7 173.7 853.3 184.3 960 200.5C1066.7 216.7 1173.3 238.3 1280 240.2C1386.7 242 1493.3 224 1600 229.5C1706.7 235 1813.3 264 1866.7 278.5L1920 293L1920 139L1866.7 124.7C1813.3 110.3 1706.7 81.7 1600 81.7C1493.3 81.7 1386.7 110.3 1280 123C1173.3 135.7 1066.7 132.3 960 128.8C853.3 125.3 746.7 121.7 640 109C533.3 96.3 426.7 74.7 320 63.8C213.3 53 106.7 53 53.3 53L0 53Z" fill="#f694b4"></path><path d="M0 282L53.3 280.2C106.7 278.3 213.3 274.7 320 265.7C426.7 256.7 533.3 242.3 640 235.2C746.7 228 853.3 228 960 238.8C1066.7 249.7 1173.3 271.3 1280 278.5C1386.7 285.7 1493.3 278.3 1600 283.7C1706.7 289 1813.3 307 1866.7 316L1920 325L1920 291L1866.7 276.5C1813.3 262 1706.7 233 1600 227.5C1493.3 222 1386.7 240 1280 238.2C1173.3 236.3 1066.7 214.7 960 198.5C853.3 182.3 746.7 171.7 640 164.5C533.3 157.3 426.7 153.7 320 162.7C213.3 171.7 106.7 193.3 53.3 204.2L0 215Z" fill="#f79bb9"></path><path d="M0 465L53.3 466.8C106.7 468.7 213.3 472.3 320 441.8C426.7 411.3 533.3 346.7 640 339.5C746.7 332.3 853.3 382.7 960 404.2C1066.7 425.7 1173.3 418.3 1280 423.7C1386.7 429 1493.3 447 1600 457.8C1706.7 468.7 1813.3 472.3 1866.7 474.2L1920 476L1920 323L1866.7 314C1813.3 305 1706.7 287 1600 281.7C1493.3 276.3 1386.7 283.7 1280 276.5C1173.3 269.3 1066.7 247.7 960 236.8C853.3 226 746.7 226 640 233.2C533.3 240.3 426.7 254.7 320 263.7C213.3 272.7 106.7 276.3 53.3 278.2L0 280Z" fill="#f7a3bf"></path><path d="M0 595L53.3 638.2C106.7 681.3 213.3 767.7 320 747.8C426.7 728 533.3 602 640 587.7C746.7 573.3 853.3 670.7 960 690.5C1066.7 710.3 1173.3 652.7 1280 625.7C1386.7 598.7 1493.3 602.3 1600 649.2C1706.7 696 1813.3 786 1866.7 831L1920 876L1920 474L1866.7 472.2C1813.3 470.3 1706.7 466.7 1600 455.8C1493.3 445 1386.7 427 1280 421.7C1173.3 416.3 1066.7 423.7 960 402.2C853.3 380.7 746.7 330.3 640 337.5C533.3 344.7 426.7 409.3 320 439.8C213.3 470.3 106.7 466.7 53.3 464.8L0 463Z" fill="#f8adc6"></path><path d="M0 930L53.3 942.5C106.7 955 213.3 980 320 960.2C426.7 940.3 533.3 875.7 640 868.5C746.7 861.3 853.3 911.7 960 920.7C1066.7 929.7 1173.3 897.3 1280 883C1386.7 868.7 1493.3 872.3 1600 895.7C1706.7 919 1813.3 962 1866.7 983.5L1920 1005L1920 874L1866.7 829C1813.3 784 1706.7 694 1600 647.2C1493.3 600.3 1386.7 596.7 1280 623.7C1173.3 650.7 1066.7 708.3 960 688.5C853.3 668.7 746.7 571.3 640 585.7C533.3 600 426.7 726 320 745.8C213.3 765.7 106.7 679.3 53.3 636.2L0 593Z" fill="#fab6ce"></path><path d="M0 1081L53.3 1081C106.7 1081 213.3 1081 320 1081C426.7 1081 533.3 1081 640 1081C746.7 1081 853.3 1081 960 1081C1066.7 1081 1173.3 1081 1280 1081C1386.7 1081 1493.3 1081 1600 1081C1706.7 1081 1813.3 1081 1866.7 1081L1920 1081L1920 1003L1866.7 981.5C1813.3 960 1706.7 917 1600 893.7C1493.3 870.3 1386.7 866.7 1280 881C1173.3 895.3 1066.7 927.7 960 918.7C853.3 909.7 746.7 859.3 640 866.5C533.3 873.7 426.7 938.3 320 958.2C213.3 978 106.7 953 53.3 940.5L0 928Z" fill="#fbc0d5"></path></svg>